# xmcd
#
# Track frame offsets:
#  150
#  16179
#  33760
#  56356
#  81779
#  97609
#  120334
#  136999
#  157519
#  183917
#
# Disc length: 2715 seconds
#
# Revision: 0
# Processed by: cddbd v1.4PL0 Copyright (c) Steve Scherf et al.
# Submitted via: AltoMP3_Maker 3.0
#
DISCID=5b0a990a
DTITLE=Neil Cleary - Numbers Add Up
DYEAR=1900
DGENRE=
TTITLE0=Teenage Aspirations
TTITLE1=Nobody's Fool
TTITLE2=Your Next Move
TTITLE3=Girls Who Leave the East for San Francisco
TTITLE4=Reckless and On Target
TTITLE5=I Want You to Leave Him
TTITLE6=Oh, You
TTITLE7=Automatic Blues
TTITLE8=Hometown
TTITLE9=When All of Us Get Famous
EXTD=
EXTT0=
EXTT1=
EXTT2=
EXTT3=
EXTT4=
EXTT5=
EXTT6=
EXTT7=
EXTT8=
EXTT9=
PLAYORDER=
